{
  "asset": {
    "version": "2.0",
    "generator": "THREE.GLTFExporter"
  },
  "scenes": [
    {
      "nodes": [0]
    }
  ],
  "scene": 0,
  "nodes": [
    {
      "children": [6],
      "matrix": [0.01, 0, 0, 0, 0, 0.01, 0, 0, 0, 0, 0.01, 0, 0, 0, 0, 1]
    },
    {
      "matrix": [
        1, 0, 0, 0, 0, 1, 0, 0, 0, 0, 1, 0, 55.270832966070884, 95.5,
        -14.573922078368923, 1
      ],
      "name": "Text",
      "mesh": 0
    },
    {
      "matrix": [
        0.5249264705438564, -0.43297934474162847, -0.7327899341212869, 0,
        0.6363086301974155, 0.7714345903161777, 0, 0, 0.5652995026166738,
        -0.4662805592031704, 0.680454930506437, 0, 0, 0, 0, 1
      ],
      "name": "Light Main",
      "extensions": {
        "KHR_lights_punctual": {
          "light": 0
        }
      }
    },
    {
      "matrix": [
        0.19510680503180866, -0.3578366664398443, -0.9131737265063529, 0,
        -0.8779748072229228, -0.4787068391843504, 0, 0, -0.43714250824205064,
        0.8017435264904531, -0.4075705401749501, 0, 0, 0, 0, 1
      ],
      "name": "Key Light",
      "extensions": {
        "KHR_lights_punctual": {
          "light": 1
        }
      }
    },
    {
      "matrix": [
        0.8825376997598263, -2.9362097780927243e-8, -0.47024164905145716, 0,
        -0.2222904320789982, 0.8812151720104143, -0.41718914706016524, 0,
        0.41438408790488923, 0.4727153695604312, 0.7777056043726173, 0,
        477.6447536860933, 439.4971608964915, 846.1289011427942, 1
      ],
      "camera": 0
    },
    {
      "matrix": [1, 0, 0, 0, 0, 1, 0, 0, 0, 0, 1, 0, 0, 1, 0, 1],
      "name": "Default Ambient Light"
    },
    {
      "name": "Scene",
      "children": [1, 2, 3, 4, 5]
    }
  ],
  "bufferViews": [
    {
      "buffer": 0,
      "byteOffset": 0,
      "byteLength": 97344,
      "target": 34962,
      "byteStride": 12
    },
    {
      "buffer": 0,
      "byteOffset": 97344,
      "byteLength": 97344,
      "target": 34962,
      "byteStride": 12
    },
    {
      "buffer": 0,
      "byteOffset": 194688,
      "byteLength": 64896,
      "target": 34962,
      "byteStride": 8
    },
    {
      "buffer": 0,
      "byteOffset": 259584,
      "byteLength": 64152,
      "target": 34963
    }
  ],
  "buffers": [
    {
      "byteLength": 323736,
      "uri": "data:application/octet-stream;base64,"
    }
  ],
  "accessors": [
    {
      "bufferView": 0,
      "componentType": 5126,
      "count": 8112,
      "max": [220.5499725341797, 100.09602355957031, 44.85215759277344],
      "min": [-204.5500030517578, -82.70397186279297, 0],
      "type": "VEC3"
    },
    {
      "bufferView": 1,
      "componentType": 5126,
      "count": 8112,
      "max": [1, 1, 1],
      "min": [-1, -1, -1],
      "type": "VEC3"
    },
    {
      "bufferView": 2,
      "componentType": 5126,
      "count": 8112,
      "max": [1, 1],
      "min": [0, 0],
      "type": "VEC2"
    },
    {
      "bufferView": 3,
      "componentType": 5123,
      "count": 32076,
      "max": [8111],
      "min": [0],
      "type": "SCALAR"
    }
  ],
  "meshes": [
    {
      "primitives": [
        {
          "mode": 4,
          "attributes": {
            "POSITION": 0,
            "NORMAL": 1,
            "TEXCOORD_0": 2
          },
          "extras": {
            "parameters": {
              "type": "TextGeometry",
              "width": 803.1910646041581,
              "height": 192.00795135601948,
              "depth": 44.85215584326215,
              "horizontalAlign": 3,
              "verticalAlign": 3,
              "fontSize": 200,
              "lineHeight": 1.2,
              "letterSpacing": 0,
              "text": {
                "textValue": "blog"
              },
              "textTransform": 1,
              "font": "Public Sans_900",
              "extrudeBevelSize": 2,
              "extrudeBevelSegments": 1
            },
            "type": "TextGeometry"
          },
          "indices": 3
        }
      ]
    }
  ],
  "extensions": {
    "KHR_lights_punctual": {
      "lights": [
        {
          "name": "Light Main",
          "color": [1, 1, 1],
          "intensity": 1,
          "type": "directional"
        },
        {
          "name": "Key Light",
          "color": [1, 1, 1],
          "intensity": 0.2,
          "type": "directional"
        }
      ]
    }
  },
  "cameras": [
    {
      "type": "orthographic",
      "orthographic": {
        "xmag": 8.0554668125,
        "ymag": 5.4083215000000004,
        "zfar": 100000,
        "znear": 0
      }
    }
  ],
  "extensionsUsed": ["KHR_lights_punctual"]
}
